<svg width="64" height="48" viewBox="0 0 64 48" fill="none" xmlns="http://www.w3.org/2000/svg">
<path d="M4.53433 30.8387C4.54866 31.0456 4.53433 31.2894 4.49135 31.5702C4.4627 31.8362 4.41256 32.0948 4.34093 32.3461C4.26929 32.5973 4.16901 32.8264 4.04007 33.0332C3.91113 33.2254 3.75354 33.351 3.5673 33.4101C3.03722 33.6022 2.62175 33.6983 2.32089 33.6983C2.03436 33.6983 1.79081 33.6465 1.59024 33.5431C1.404 33.4397 1.21059 33.3214 1.01002 33.1884C0.723488 33.0259 0.479937 32.8042 0.279366 32.5234C0.0931222 32.2426 0 31.9618 0 31.681C0 31.4741 0.0429795 31.2229 0.128938 30.9273C0.229224 30.6318 0.343836 30.3436 0.472774 30.0628C0.616039 29.7672 0.766467 29.5012 0.924058 29.2648C1.09598 29.0283 1.25357 28.8658 1.39683 28.7771C1.64038 28.6441 1.83379 28.5776 1.97706 28.5776C2.13465 28.5628 2.27791 28.5554 2.40685 28.5554C3.08019 28.5554 3.59595 28.7328 3.95411 29.0874C4.31227 29.4273 4.50568 30.0111 4.53433 30.8387Z" fill="#191D2A"/>
<path d="M31.418 9.1367C31.418 9.97906 31.289 10.8288 31.0312 11.686C30.7733 12.5431 30.3936 13.3707 29.8922 14.1687C29.4051 14.9667 28.8106 15.7204 28.1086 16.4298C27.4209 17.1392 26.6473 17.7672 25.7877 18.314C24.9424 18.8461 24.0255 19.282 23.037 19.6219C22.0485 19.9618 21.017 20.1687 19.9425 20.2426C19.7419 20.2722 19.5413 20.2722 19.3408 20.2426C19.1545 20.1983 18.9826 20.1539 18.825 20.1096C18.7104 20.0653 18.5456 19.9988 18.3307 19.9101C18.1302 19.8214 18.0012 19.7549 17.9439 19.7106C17.858 19.6219 17.7362 19.4889 17.5786 19.3116C17.4353 19.1195 17.3279 18.9643 17.2563 18.8461C17.2133 18.7722 17.1918 18.6539 17.1918 18.4914C17.2061 18.314 17.2133 18.1145 17.2133 17.8929C17.2133 17.686 17.2061 17.4717 17.1918 17.25C17.1918 17.0135 17.2133 16.8805 17.2563 16.851C17.2849 16.8214 17.3494 16.851 17.4497 16.9397C17.5643 17.0135 17.7792 17.0727 18.0944 17.117C18.2233 17.1465 18.3666 17.1539 18.5241 17.1392C18.6961 17.1244 18.8608 17.1022 19.0184 17.0727C19.5198 17.0283 20.1001 16.8805 20.7591 16.6293C21.4181 16.3781 22.0914 16.0456 22.7791 15.6318C23.4811 15.218 24.1688 14.7377 24.8421 14.1909C25.5155 13.6293 26.11 13.0308 26.6258 12.3953C27.1559 11.7599 27.5785 11.0874 27.8937 10.3781C28.2232 9.66872 28.3879 8.95197 28.3879 8.22783C28.3879 7.66626 28.2805 7.12685 28.0656 6.60961C27.8507 6.07759 27.514 5.55296 27.0556 5.03571C26.769 4.69581 26.2103 4.4298 25.3794 4.23768C24.5484 4.04557 23.5527 3.94951 22.3923 3.94951C21.4038 3.94951 20.3436 4.03079 19.2118 4.19335C18.08 4.35591 16.9554 4.62192 15.8379 4.99138C14.8781 5.3165 14.0614 5.60468 13.3881 5.85591C12.7148 6.09236 12.1345 6.30665 11.6474 6.49877C11.1747 6.69089 10.7807 6.85345 10.4655 6.98645C10.1646 7.11946 9.8996 7.23768 9.67038 7.34113C9.44116 7.4298 9.23342 7.51847 9.04718 7.60714C8.86093 7.68103 8.66036 7.74754 8.44546 7.80665C8.24489 7.88054 8.0873 7.92488 7.97269 7.93965C7.85808 7.93965 7.76496 7.93965 7.69332 7.93965C7.57871 7.9101 7.49275 7.88054 7.43545 7.85099C7.39247 7.80665 7.33516 7.76231 7.26353 7.71798C7.20622 7.67365 7.14892 7.65887 7.09161 7.67365C7.03431 7.67365 6.977 7.68103 6.91969 7.69581C6.87671 7.71059 6.82657 7.71059 6.76927 7.69581C6.71196 7.68103 6.65465 7.62931 6.59735 7.54064C6.51139 7.37808 6.45408 7.25246 6.42543 7.16379C6.38245 7.06034 6.36096 6.97906 6.36096 6.91995C6.34663 6.84606 6.34663 6.77956 6.36096 6.72044C6.37529 6.66133 6.39678 6.58744 6.42543 6.49877C6.43976 6.4101 6.43976 6.32882 6.42543 6.25493C6.4111 6.18103 6.40394 6.11453 6.40394 6.05542C6.38961 5.9963 6.39678 5.93719 6.42543 5.87808C6.43976 5.80419 6.49706 5.72291 6.59735 5.63424C6.79792 5.47167 7.12743 5.22044 7.58588 4.88054C8.04432 4.54064 8.61022 4.17118 9.28356 3.77217C9.97124 3.35837 10.752 2.93719 11.6259 2.50862C12.5142 2.08005 13.4741 1.68842 14.5056 1.33374C15.5514 0.964286 16.6617 0.66133 17.8365 0.424877C19.0256 0.173645 20.2648 0.0332512 21.5542 0.00369458C22.8436 -0.0258621 23.9754 0.121921 24.9496 0.447044C25.9381 0.757389 26.7977 1.17857 27.5283 1.71059C28.259 2.22783 28.8679 2.82635 29.355 3.50616C29.8564 4.17118 30.2575 4.8436 30.5584 5.5234C30.8593 6.2032 31.0742 6.86084 31.2031 7.4963C31.332 8.13177 31.4037 8.67857 31.418 9.1367ZM16.676 6.16626C16.6617 6.24015 16.6331 6.49138 16.5901 6.91995C16.5614 7.34852 16.5184 7.90271 16.4611 8.58251C16.4182 9.24754 16.368 10.0086 16.3107 10.8658C16.2534 11.7229 16.1961 12.617 16.1388 13.548C16.0815 14.4791 16.0242 15.4249 15.9669 16.3855C15.9239 17.3313 15.8952 18.2401 15.8809 19.1121C15.8523 19.9988 15.8308 20.915 15.8164 21.8608C15.8021 22.7919 15.795 23.7377 15.795 24.6983C15.795 25.8066 15.8164 26.9002 15.8594 27.9791C15.9167 29.0579 16.0098 30.0998 16.1388 31.1047C16.1961 31.4446 16.1746 31.7106 16.0743 31.9027C15.974 32.0948 15.9239 32.2648 15.9239 32.4126C15.9239 32.4569 15.9454 32.5012 15.9884 32.5456C16.0313 32.5751 16.0385 32.6047 16.0098 32.6342C15.9669 32.7081 15.8881 32.7377 15.7735 32.7229C15.6732 32.7081 15.5801 32.6638 15.4941 32.5899C15.4511 32.5456 15.4153 32.4938 15.3866 32.4347C15.358 32.3608 15.3293 32.3017 15.3007 32.2574C15.272 32.2131 15.2362 32.1909 15.1932 32.1909C15.1503 32.1761 15.0858 32.2057 14.9998 32.2796C14.9282 32.3534 14.8422 32.4569 14.742 32.5899C14.656 32.7229 14.5629 32.8633 14.4626 33.0111C14.3623 33.1441 14.262 33.2623 14.1617 33.3658C14.0614 33.484 13.9612 33.5579 13.8609 33.5874C13.7749 33.617 13.6675 33.6465 13.5385 33.6761C13.4239 33.7057 13.3523 33.6613 13.3236 33.5431C13.295 33.484 13.2663 33.447 13.2377 33.4323C13.209 33.4175 13.1732 33.3953 13.1302 33.3658C13.0872 33.351 13.0443 33.3214 13.0013 33.2771C12.9726 33.2475 12.9511 33.1736 12.9368 33.0554C12.8652 32.8042 12.7792 32.6195 12.6789 32.5012C12.593 32.3682 12.55 32.2204 12.55 32.0579C12.5213 31.8066 12.4497 31.0825 12.3351 29.8855C12.2348 28.6884 12.1847 27.0333 12.1847 24.92C12.1847 24.0776 12.1918 23.1613 12.2062 22.1712C12.2348 21.181 12.285 20.1318 12.3566 19.0234C12.4282 18.0332 12.5142 16.9618 12.6145 15.8091C12.7148 14.6564 12.815 13.5259 12.9153 12.4175C13.0299 11.3091 13.1302 10.2746 13.2162 9.31404C13.3021 8.35345 13.3666 7.56281 13.4096 6.94212C13.4239 6.83867 13.4597 6.77217 13.517 6.74261C13.5743 6.71305 13.6531 6.69089 13.7534 6.67611C13.8537 6.66133 13.9827 6.64655 14.1402 6.63177C14.2978 6.60222 14.4841 6.5431 14.699 6.45443C14.8709 6.36576 15.0715 6.27709 15.3007 6.18842C15.5442 6.09975 15.7663 6.03325 15.9669 5.98892C16.1818 5.9298 16.3537 5.90764 16.4826 5.92241C16.6259 5.93719 16.6904 6.01847 16.676 6.16626Z" fill="#191D2A"/>
<path d="M43.001 20.1983C43.0153 20.7155 42.9723 21.351 42.872 22.1047C42.7717 22.8436 42.6571 23.6416 42.5282 24.4988C42.3992 25.3411 42.2775 26.2057 42.1629 27.0924C42.0482 27.9791 41.9909 28.814 41.9909 29.5973C41.9909 30.1145 42.0268 30.6096 42.0984 31.0825C42.17 31.5406 42.2918 31.9397 42.4637 32.2796C42.564 32.4717 42.6141 32.6416 42.6141 32.7894C42.6285 32.9372 42.6213 33.0702 42.5926 33.1884C42.564 33.2919 42.5353 33.3805 42.5067 33.4544C42.478 33.5431 42.478 33.6244 42.5067 33.6983C42.5353 33.7722 42.5282 33.8534 42.4852 33.9421C42.4422 34.0456 42.3778 34.1342 42.2918 34.2081C42.2058 34.2968 42.1055 34.3559 41.9909 34.3855C41.8906 34.4298 41.7975 34.4224 41.7116 34.3633C41.554 34.2598 41.425 34.2007 41.3248 34.186C41.2388 34.1712 41.16 34.1712 41.0884 34.186C41.0311 34.2155 40.9738 34.2451 40.9164 34.2746C40.8735 34.3042 40.8162 34.3042 40.7445 34.2746C40.501 34.1416 40.2359 33.9865 39.9494 33.8091C39.6629 33.6318 39.4766 33.4397 39.3907 33.2328C39.3334 33.1441 39.2761 32.9963 39.2188 32.7894C39.1758 32.5825 39.1328 32.3387 39.0898 32.0579C39.0612 31.7771 39.0325 31.4741 39.0039 31.149C38.9752 30.8239 38.9537 30.5062 38.9394 30.1958C38.4666 31.1121 37.958 31.8732 37.4136 32.4791C36.8835 33.085 36.3463 33.5653 35.8019 33.9199C35.2718 34.2894 34.7417 34.548 34.2117 34.6958C33.6959 34.8436 33.2231 34.9175 32.7933 34.9175C32.3492 34.9175 31.9552 34.8584 31.6114 34.7401C31.2819 34.6219 31.024 34.4815 30.8378 34.319C30.1358 33.5948 29.6343 33.0111 29.3335 32.5677C29.047 32.1096 28.918 31.7401 28.9467 31.4594C29.0183 30.5135 29.2404 29.6416 29.6129 28.8436C29.9853 28.0456 30.4509 27.314 31.0097 26.649C31.5684 25.9692 32.1916 25.3633 32.8793 24.8313C33.5813 24.2845 34.2904 23.8042 35.0068 23.3904C35.7374 22.9618 36.4537 22.6071 37.1557 22.3264C37.8577 22.0308 38.4953 21.7943 39.0683 21.617C39.0397 20.819 39.0039 20.1244 38.9609 19.5332C38.9322 18.9273 38.8821 18.484 38.8105 18.2032C38.5956 17.2869 38.266 16.6071 37.8219 16.1638C37.3778 15.7057 36.8406 15.4766 36.2102 15.4766C35.8091 15.4766 35.4007 15.6318 34.9853 15.9421C34.5841 16.2525 34.2188 16.6736 33.8893 17.2057C33.5598 17.7377 33.2876 18.351 33.0727 19.0456C32.8721 19.7401 32.7647 20.4717 32.7504 21.2401C32.7504 21.4323 32.7575 21.617 32.7718 21.7943C32.7862 21.9717 32.8077 22.1564 32.8363 22.3485C32.8506 22.452 32.8148 22.5259 32.7289 22.5702C32.6572 22.6145 32.5641 22.6515 32.4495 22.681C32.3349 22.6958 32.2131 22.7106 32.0842 22.7254C31.9552 22.7401 31.8478 22.7623 31.7618 22.7919C31.6902 22.8214 31.6329 22.8436 31.5899 22.8584C31.5469 22.8584 31.5039 22.851 31.461 22.8362C31.418 22.8067 31.3607 22.7623 31.289 22.7032C31.2317 22.6441 31.1458 22.5702 31.0312 22.4815C30.9166 22.3929 30.7948 22.319 30.6658 22.2599C30.5512 22.2007 30.4438 22.149 30.3435 22.1047C30.2575 22.0603 30.1787 22.0234 30.1071 21.9938C30.0498 21.9495 30.0212 21.8978 30.0212 21.8387C30.0212 20.9224 30.2146 19.9766 30.6014 19.0012C31.0025 18.0259 31.5326 17.1392 32.1916 16.3411C32.865 15.5283 33.6386 14.8633 34.5125 14.3461C35.4007 13.8288 36.3391 13.5702 37.3277 13.5702C38.1299 13.5702 38.8248 13.6958 39.4122 13.947C39.9996 14.1983 40.501 14.5234 40.9164 14.9224C41.3319 15.3214 41.6686 15.7648 41.9265 16.2525C42.1987 16.7401 42.4064 17.2352 42.5497 17.7377C42.7073 18.2254 42.8147 18.6909 42.872 19.1342C42.9436 19.5628 42.9866 19.9175 43.001 20.1983ZM39.1113 24.1441C38.6815 24.3067 38.2087 24.5209 37.693 24.7869C37.1772 25.053 36.6543 25.3707 36.1242 25.7401C35.5942 26.0948 35.0641 26.5086 34.534 26.9815C34.0039 27.4544 33.5097 27.9791 33.0512 28.5554C32.5068 29.2204 32.1128 29.8116 31.8693 30.3288C31.6257 30.8461 31.4753 31.2894 31.418 31.6589C31.3607 32.0135 31.375 32.2943 31.461 32.5012C31.5469 32.7081 31.6472 32.8337 31.7618 32.8781C32.2059 33.0554 32.6644 33.0776 33.1372 32.9446C33.6243 32.7968 34.1042 32.5456 34.577 32.1909C35.0641 31.8214 35.5297 31.3855 35.9738 30.883C36.4323 30.3658 36.8621 29.8411 37.2632 29.3091C37.6643 28.7623 38.0225 28.2303 38.3377 27.7131C38.6529 27.181 38.9107 26.7229 39.1113 26.3387V24.1441Z" fill="#191D2A"/>
<path d="M63.9105 15.1219C63.8675 15.1958 63.7171 15.447 63.4592 15.8756C63.2156 16.2894 62.9004 16.8214 62.5136 17.4717C62.1268 18.1071 61.6827 18.8387 61.1813 19.6663C60.6942 20.4791 60.1856 21.3288 59.6555 22.2155C59.1397 23.0874 58.624 23.9594 58.1082 24.8313C57.5925 25.7032 57.1054 26.5234 56.6469 27.2919C56.2028 28.0456 55.816 28.718 55.4865 29.3091C55.157 29.9002 54.9134 30.3436 54.7558 30.6392C54.5982 30.9347 54.3762 31.3929 54.0897 32.0135C53.8031 32.6342 53.4736 33.3436 53.1011 34.1416C52.7286 34.9544 52.3275 35.8264 51.8977 36.7574C51.4822 37.6884 51.0596 38.6195 50.6298 39.5505C50.2143 40.4963 49.806 41.4052 49.4049 42.2771C49.0181 43.1638 48.6671 43.9544 48.3519 44.649C48.051 45.3436 47.8003 45.9126 47.5998 46.3559C47.3992 46.814 47.2846 47.0874 47.2559 47.1761C47.127 47.516 47.0052 47.7229 46.8906 47.7968C46.7903 47.8855 46.6399 47.952 46.4393 47.9963C46.339 48.0111 46.2602 47.9815 46.2029 47.9076C46.1456 47.8337 46.0955 47.7451 46.0525 47.6416C46.0095 47.5382 45.9665 47.4421 45.9236 47.3534C45.8806 47.2796 45.8304 47.2352 45.7731 47.2204C45.5869 47.1909 45.4794 47.1465 45.4508 47.0874C45.4365 47.0431 45.3935 46.947 45.3218 46.7993C45.2789 46.7401 45.2359 46.7032 45.1929 46.6884C45.1499 46.6884 45.1069 46.6884 45.064 46.6884C45.021 46.6884 44.9923 46.681 44.978 46.6663C44.9494 46.6515 44.935 46.6071 44.935 46.5332C44.9637 46.282 44.9852 46.0308 44.9995 45.7796C45.0281 45.5283 45.064 45.2993 45.1069 45.0924C45.1499 44.9298 45.2932 44.5899 45.5367 44.0727C45.7946 43.5554 46.1098 42.9199 46.4823 42.1663C46.8548 41.4273 47.2702 40.5998 47.7287 39.6835C48.2015 38.782 48.6742 37.8584 49.147 36.9126C49.6341 35.9815 50.1069 35.0579 50.5653 34.1416C51.0381 33.2254 51.4607 32.3904 51.8332 31.6367C51.647 31.2229 51.3963 30.6909 51.0811 30.0406C50.7659 29.3756 50.4221 28.6441 50.0496 27.8461C49.6771 27.0333 49.276 26.1761 48.8462 25.2746C48.4307 24.3732 48.0224 23.4791 47.6212 22.5924C47.2201 21.7057 46.8333 20.8485 46.4608 20.0209C46.0883 19.1933 45.7588 18.4544 45.4723 17.8042C45.2001 17.1392 44.9852 16.5924 44.8276 16.1638C44.67 15.7204 44.5912 15.447 44.5912 15.3436C44.6055 15.1663 44.6413 15.048 44.6986 14.9889C44.7559 14.915 44.8347 14.8781 44.935 14.8781C45.021 14.8781 45.1141 14.9002 45.2144 14.9446C45.329 14.9889 45.4436 15.0332 45.5582 15.0776C45.7301 15.1515 45.8949 15.2254 46.0525 15.2993C46.2101 15.3584 46.3247 15.3288 46.3963 15.2106C46.4393 15.0924 46.5611 15.0332 46.7617 15.0332C46.9622 15.0185 47.127 15.048 47.2559 15.1219C47.2989 15.1663 47.3347 15.181 47.3634 15.1663C47.4063 15.1515 47.4422 15.1219 47.4708 15.0776C47.5138 15.0332 47.5568 14.9889 47.5998 14.9446C47.6571 14.8855 47.7215 14.8411 47.7932 14.8116C47.9508 14.782 48.094 14.8116 48.223 14.9002C48.3519 14.9889 48.4737 15.181 48.5883 15.4766C48.6599 15.6983 48.8032 16.0825 49.0181 16.6293C49.2473 17.1761 49.5123 17.8116 49.8132 18.5357C50.1284 19.2598 50.4722 20.0431 50.8447 20.8855C51.2172 21.7131 51.5897 22.5333 51.9622 23.3461C52.3347 24.1441 52.6857 24.8978 53.0152 25.6071C53.359 26.3165 53.6599 26.9076 53.9177 27.3805C54.3046 26.6416 54.72 25.8584 55.1641 25.0308C55.6226 24.1884 56.081 23.3534 56.5395 22.5259C57.0123 21.6835 57.4779 20.8633 57.9363 20.0653C58.3948 19.2672 58.8246 18.5283 59.2257 17.8485C59.6412 17.1687 60.0065 16.5776 60.3217 16.0751C60.6369 15.5579 60.8947 15.1663 61.0953 14.9002C61.2099 14.7525 61.2672 14.6564 61.2672 14.6121C61.2672 14.5677 61.3245 14.5234 61.4391 14.4791C61.5251 14.4495 61.5967 14.4199 61.654 14.3904C61.7257 14.3608 61.8331 14.3608 61.9764 14.3904C62.1053 14.4199 62.2056 14.4347 62.2772 14.4347C62.3489 14.4347 62.4062 14.4791 62.4492 14.5677C62.4778 14.6121 62.5208 14.6268 62.5781 14.6121C62.6354 14.5973 62.6999 14.5751 62.7715 14.5456C62.8575 14.5012 62.9434 14.4643 63.0294 14.4347C63.1153 14.3904 63.2013 14.3756 63.2873 14.3904C63.3875 14.4052 63.4878 14.4273 63.5881 14.4569C63.6884 14.4717 63.7744 14.5086 63.846 14.5677C63.9319 14.6268 63.9821 14.7007 63.9964 14.7894C64.0107 14.8781 63.9821 14.9889 63.9105 15.1219Z" fill="#191D2A"/>
</svg>
